<svg width="100" height="100" viewBox="0 0 100 100" fill="none" xmlns="http://www.w3.org/2000/svg">
  <rect width="100" height="100" rx="10" fill="#F8F9FA"/>
  <path d="M50 10C30.67 10 15 25.67 15 45C15 64.33 30.67 80 50 80C69.33 80 85 64.33 85 45C85 25.67 69.33 10 50 10ZM50 75C33.43 75 20 61.57 20 45C20 28.43 33.43 15 50 15C66.57 15 80 28.43 80 45C80 61.57 66.57 75 50 75Z" fill="#4C84FF"/>
  <path d="M50 20C36.19 20 25 31.19 25 45C25 58.81 36.19 70 50 70C63.81 70 75 58.81 75 45C75 31.19 63.81 20 50 20ZM50 65C39 65 30 56 30 45C30 34 39 25 50 25C61 25 70 34 70 45C70 56 61 65 50 65Z" fill="#4C84FF"/>
  <path d="M50 30C41.72 30 35 36.72 35 45C35 53.28 41.72 60 50 60C58.28 60 65 53.28 65 45C65 36.72 58.28 30 50 30ZM50 55C44.48 55 40 50.52 40 45C40 39.48 44.48 35 50 35C55.52 35 60 39.48 60 45C60 50.52 55.52 55 50 55Z" fill="#4C84FF"/>
  <path d="M50 40C47.24 40 45 42.24 45 45C45 47.76 47.24 50 50 50C52.76 50 55 47.76 55 45C55 42.24 52.76 40 50 40Z" fill="#4C84FF"/>
  <path d="M40 85L60 85L60 90L40 90L40 85Z" fill="#4C84FF"/>
  <path d="M35 90L65 90L65 95L35 95L35 90Z" fill="#4C84FF"/>
</svg> 